HIERARCHY
ROOT Hips
{
	OFFSET -0.001795 -0.223333 0.028219
	CHANNELS 6 Xposition Yposition Zposition Zrotation Yrotation Xrotation 
	JOINT LeftUpLeg
	{
		OFFSET 0.069520 -0.091406 -0.006815
		CHANNELS 3 Zrotation Yrotation Xrotation
		JOINT LeftLeg
		{
			OFFSET 0.034277 -0.375199 -0.004496
			CHANNELS 3 Zrotation Yrotation Xrotation
			JOINT LeftFoot
			{
				OFFSET -0.013596 -0.397961 -0.043693
				CHANNELS 3 Zrotation Yrotation Xrotation
				JOINT LeftToe
				{
					OFFSET 0.026358 -0.055791 0.119288
					CHANNELS 3 Zrotation Yrotation Xrotation
					End Site
					{
						OFFSET 0.000000 0.000000 0.000000
					}
				}
			}
		}
	}
	JOINT RightUpLeg
	{
		OFFSET -0.067670 -0.090522 -0.004320
		CHANNELS 3 Zrotation Yrotation Xrotation
		JOINT RightLeg
		{
			OFFSET -0.038290 -0.382569 -0.008850
			CHANNELS 3 Zrotation Yrotation Xrotation
			JOINT RightFoot
			{
				OFFSET 0.015774 -0.398415 -0.042312
				CHANNELS 3 Zrotation Yrotation Xrotation
				JOINT RightToe
				{
					OFFSET -0.025372 -0.048144 0.123348
					CHANNELS 3 Zrotation Yrotation Xrotation
					End Site
					{
						OFFSET 0.000000 0.000000 0.000000
					}
				}
			}
		}
	}
	JOINT Spine
	{
		OFFSET -0.002533 0.108963 -0.026696
		CHANNELS 3 Zrotation Yrotation Xrotation
		JOINT Spine1
		{
			OFFSET 0.005487 0.135180 0.001092
			CHANNELS 3 Zrotation Yrotation Xrotation
			JOINT Spine2
			{
				OFFSET 0.001457 0.052922 0.025425
				CHANNELS 3 Zrotation Yrotation Xrotation
				JOINT Neck
				{
					OFFSET -0.002778 0.213870 -0.042857
					CHANNELS 3 Zrotation Yrotation Xrotation
					JOINT Head
					{
						OFFSET 0.005152 0.064970 0.051349
						CHANNELS 3 Zrotation Yrotation Xrotation
						End Site
						{
							OFFSET 0.000000 0.000000 0.000000
						}
					}
				}
				JOINT LeftShoulder
				{
					OFFSET 0.078845 0.121749 -0.034090
					CHANNELS 3 Zrotation Yrotation Xrotation
					JOINT LeftArm
					{
						OFFSET 0.090977 0.030469 -0.008868
						CHANNELS 3 Zrotation Yrotation Xrotation
						JOINT LeftForeArm
						{
							OFFSET 0.259612 -0.012772 -0.027456
							CHANNELS 3 Zrotation Yrotation Xrotation
							JOINT LeftHand
							{
								OFFSET 0.249234 0.008986 -0.001171
								CHANNELS 3 Zrotation Yrotation Xrotation
								End Site
								{
									OFFSET 0.000000 0.000000 0.000000
								}
							}
						}
					}
				}
				JOINT RightShoulder
				{
					OFFSET -0.081759 0.118833 -0.038615
					CHANNELS 3 Zrotation Yrotation Xrotation
					JOINT RightArm
					{
						OFFSET -0.096012 0.032551 -0.009143
						CHANNELS 3 Zrotation Yrotation Xrotation
						JOINT RightForeArm
						{
							OFFSET -0.253742 -0.013329 -0.021401
							CHANNELS 3 Zrotation Yrotation Xrotation
							JOINT RightHand
							{
								OFFSET -0.255298 0.007772 -0.005559
								CHANNELS 3 Zrotation Yrotation Xrotation
								End Site
								{
									OFFSET 0.000000 0.000000 0.000000
								}
							}
						}
					}
				}
			}
		}
	}
}
MOTION
Frames: 7
Frame Time: 0.050000
0.110723 1.024851 0.094665 -1.716225 25.467743 2.349525 2.921476 -0.445131 -4.485229 -4.484921 -0.580845 17.354779 4.940189 14.076263 11.565261 0.000000 0.000000 0.000000 -0.141625 1.046350 -21.864416 -3.039002 -0.432132 30.066709 0.645869 -2.241498 20.892739 0.000000 0.000000 0.000000 -3.546886 -0.596582 14.456694 5.793327 -0.280081 -28.012599 -8.853697 -18.050580 34.523640 -0.347537 1.008291 -24.977831 0.000000 0.000000 0.000000 -19.885706 3.794753 -2.521447 -46.030898 -16.301472 -2.432205 -70.054933 -70.465660 60.147306 0.000000 0.000000 0.000000 -0.710780 -8.222366 -2.979752 52.401243 -14.183501 -13.515679 91.035429 63.906415 69.447560 0.000000 0.000000 0.000000 
0.115072 1.004231 0.098465 -1.458113 26.429920 2.184453 3.087104 -0.430256 -4.100153 -4.407443 -0.533820 16.193154 6.292608 15.905765 11.541695 0.000000 0.000000 0.000000 -0.555714 0.876194 -22.620127 -1.894657 -1.008787 29.921501 -0.230711 -2.634549 14.928015 0.000000 0.000000 0.000000 -3.691272 -0.673761 15.296260 5.610466 -0.246825 -28.250535 -11.422586 -19.392562 34.572778 0.656477 0.023412 -21.882363 0.000000 0.000000 0.000000 -20.934172 5.282526 -3.264358 -45.956537 -15.679092 -2.660977 -49.628169 -63.233051 38.111476 0.000000 0.000000 0.000000 -3.367634 -9.542931 -3.062340 53.016866 -15.913551 -14.372717 101.224990 61.379124 75.885042 0.000000 0.000000 0.000000 
0.117889 0.965353 0.098984 -1.647951 29.333774 1.081092 3.115715 -0.438699 -4.095550 -2.785734 -1.255573 18.972209 4.935070 11.812261 5.570502 0.000000 0.000000 0.000000 1.650731 1.203365 -22.806967 -4.561051 -0.334313 30.629585 -1.187339 -3.486537 9.301282 0.000000 0.000000 0.000000 -4.316139 -0.873290 17.415154 6.269009 -0.334420 -28.298674 -12.125620 -19.991798 34.799418 -0.042389 0.496024 -20.550424 0.000000 0.000000 0.000000 -21.995592 3.223892 -2.431800 -46.462157 -15.600242 -2.668063 -31.773361 -57.712764 22.697043 0.000000 0.000000 0.000000 -0.303145 -10.467502 -3.855231 51.918356 -16.485106 -14.203343 104.739844 61.924734 80.708168 0.000000 0.000000 0.000000 
0.118084 0.917137 0.093895 -0.471084 30.508794 -0.893950 3.733862 -0.660806 -7.159785 -7.060737 -1.908391 30.290448 9.424506 15.103591 -4.742423 0.000000 0.000000 0.000000 3.952880 1.627950 -23.571690 -10.230239 1.310418 36.488462 -0.960780 -2.365847 -0.980063 0.000000 0.000000 0.000000 -5.829012 -1.337778 22.934470 5.617311 -0.177393 -29.977857 -11.006749 -17.873861 36.061020 -1.216579 1.846268 -24.330156 0.000000 0.000000 0.000000 -26.409721 2.217915 -2.862912 -43.315555 -17.493791 -2.008459 -23.008516 -52.459525 15.032856 0.000000 0.000000 0.000000 2.527952 -9.193756 -3.636256 52.527258 -12.260851 -12.861895 98.028956 66.026189 80.521323 0.000000 0.000000 0.000000 
0.117721 0.882401 0.087452 -0.130389 32.747831 -1.876059 3.838819 -1.244239 -13.128952 -11.585174 -2.668460 42.429493 11.848031 19.278423 -9.315486 0.000000 0.000000 0.000000 4.908324 1.676462 -26.167230 -12.037402 1.204959 42.796110 -1.855875 -4.374572 -7.067888 0.000000 0.000000 0.000000 -6.526127 -1.787308 26.075643 5.407109 -0.091021 -27.609617 -8.776326 -15.450307 32.871515 -1.866779 2.973897 -26.414031 0.000000 0.000000 0.000000 -27.703929 -0.936097 -2.400126 -43.453168 -19.455210 -0.606966 -16.915181 -46.716303 9.708244 0.000000 0.000000 0.000000 4.076354 -5.124629 -1.921626 56.391465 -8.061619 -11.627782 70.419084 68.419977 59.247464 0.000000 0.000000 0.000000 
0.120629 0.867739 0.085076 0.119404 35.070131 -2.135560 2.207193 -1.801992 -16.387246 -14.398888 -3.062523 48.686089 12.703297 21.760308 -9.760026 0.000000 0.000000 0.000000 5.668259 1.638877 -27.548593 -13.774147 1.430499 44.309266 -1.312986 -2.799493 -9.365935 0.000000 0.000000 0.000000 -7.038014 -2.095369 27.585237 4.707747 0.111468 -26.267618 -6.333861 -12.253865 30.595663 -0.425826 2.963356 -27.778389 0.000000 0.000000 0.000000 -27.910968 -3.814763 -2.454297 -44.422372 -18.075297 -0.330673 -17.887062 -44.340341 8.862305 0.000000 0.000000 0.000000 8.599953 -0.698449 0.368149 56.610958 -1.370151 -8.566417 42.385654 65.789306 36.153241 0.000000 0.000000 0.000000 
0.128253 0.871698 0.086593 0.745822 38.286746 -1.256691 0.128241 -2.164918 -17.317891 -13.770678 -4.119267 48.686642 12.693819 21.513851 -8.795983 0.000000 0.000000 0.000000 5.450119 1.329128 -27.181900 -13.063917 0.388242 43.637293 -1.813944 -4.692469 -8.371911 0.000000 0.000000 0.000000 -6.863246 -2.231864 26.906550 4.109962 0.302040 -26.293278 -5.098951 -9.233478 29.506639 -0.838546 3.967499 -25.978225 0.000000 0.000000 0.000000 -26.315597 -5.756982 -3.096184 -46.454628 -15.551947 -0.615569 -24.569626 -46.184664 11.285697 0.000000 0.000000 0.000000 11.612236 1.978627 2.544894 55.389668 1.637206 -7.049212 34.570420 61.296160 28.757603 0.000000 0.000000 0.000000 
